<?xml version="1.0" encoding="UTF-8" standalone="no"?>
<!-- Generator: $$$/GeneralStr/196=Adobe Illustrator 27.6.0, SVG Export Plug-In . SVG Version: 6.00 Build 0)  -->

<svg
   version="1.1"
   id="Calque_1"
   x="0px"
   y="0px"
   viewBox="0 0 354358.3 411791.74"
   xml:space="preserve"
   width="354358.31"
   height="411791.75"
   xmlns="http://www.w3.org/2000/svg"
   xmlns:svg="http://www.w3.org/2000/svg"><defs
   id="defs2" />
<style
   type="text/css"
   id="style1">
	.st0{fill:#FFFFFF;}
</style>

<g
   id="g2">
	<path
   class="st0"
   d="m 284.56692,435.93965 c 28.84075,-5.93158 54.22962,-17.52706 54.51141,-17.65386 v 0 c 56.03305,-23.64181 147.03569,-78.75906 147.03569,-187.33103 v -7.49549 C 486.09993,179.02169 468.53061,136.35936 437.28059,104.81347 425.91054,93.358884 411.84944,83.721819 396.85845,76.057252 h 0.0704 c 0,0 -58.63957,-37.125245 -172.03007,-32.306712 -7.98862,0.324053 -15.94906,0.986249 -23.59954,1.859785 12.35629,-8.833977 30.27786,-19.372756 54.7932,-24.332182 23.27548,-4.705818 38.97094,-5.83296 57.35744,-6.0443 0,0 2.7615,0 4.17043,0 20.88031,0 47.35406,4.832622 73.85599,14.934634 26.48784,10.13019 53.00386,25.52977 73.99688,46.691864 38.91458,39.252729 60.35846,91.312599 60.35846,146.570749 v 7.53776 c 0.91581,60.51345 -25.55794,105.88092 -42.59188,128.62101 -1.28212,1.74707 -23.89541,33.98334 -70.44638,64.54298 -57.44199,37.7029 -116.63104,49.80559 -116.63104,49.80559 v 14.3288 c 1.12714,-0.33814 12.42674,-3.01511 12.42674,-3.01511 0.77491,-0.16907 7.74911,-1.85978 18.71056,-5.43846 l 92.72153,160.60367 h 164.1119 L 452.32794,412.12878 C 509.6572,363.873 539.73781,301.93654 539.73781,230.96885 v -7.53776 c 0,-58.93545 -22.8669,-114.47538 -64.38799,-156.362797 C 430.56,21.898071 362.19883,1.3277271 317.62036,1.3277271 c -4.76218,0 -70.91133,-1.64844541 -121.66091,27.1218579 -12.72261,7.21371 -22.79645,15.230509 -30.92596,22.61329 -0.15498,0.140893 -0.29587,0.267696 -0.43677,0.3945 -2.56425,0.521303 -4.9876,1.028517 -7.2278,1.521641 -0.0141,0 -0.0141,0 -0.0282,0 -0.0704,0.01409 -0.14089,0.02818 -0.22542,0.05636 -2.31065,0.507214 -4.43813,0.986249 -6.34018,1.437106 -2.50789,0.57766 -4.97351,1.197588 -7.42505,1.817517 -1.01443,0.253607 -1.81751,0.479035 -2.39517,0.634017 -46.325547,12.398564 -81.605097,33.8988 -103.542101,62.964974 -1.493463,1.9725 -5.565264,6.65014 -9.637065,13.6666 -3.846373,6.62196 -18.4146852,30.03834 -10.693761,59.58355 1.732981,6.74877 4.424033,12.58173 6.016121,15.89271 3.620944,7.55185 9.270744,10.17246 15.343222,6.42471 6.072479,-3.76184 16.104044,-14.31471 16.104044,-14.31471 13.567974,-14.79374 15.498205,-16.8085 16.047686,-29.08026 0.479036,-10.91919 1.732982,-17.93565 4.142248,-28.85484 7.847727,-35.49089 26.065166,-59.27359 61.711036,-70.263226 3.60685,-1.113053 7.38278,-1.676624 11.0319,-2.212017 l -2.8883,3.663212 -0.28179,0.338143 c -13.94838,19.626363 -24.00812,42.338278 -28.88301,67.177668 -2.21202,11.14462 -3.31098,22.43013 -3.31098,33.80018 V 640.38915 H 254.13408 V 440.9977 c 7.65047,-0.88762 17.42843,-2.38108 30.43284,-5.05805 z m 78.06868,-90.29817 c -10.70785,24.74077 -19.28822,43.33861 -35.8713,56.76569 -8.60855,6.72059 -31.26411,20.88031 -72.61613,24.30401 V 68.857632 C 409.31337,90.541029 387.98221,287.11462 362.6356,345.64148 Z"
   id="path2"
   style="fill:#1f2d1c;fill-opacity:1;stroke-width:1.40893" />
</g>
</svg>
