<?xml version="1.0" encoding="utf-8"?>
<!-- Generator: $$$/GeneralStr/196=Adobe Illustrator 27.6.0, SVG Export Plug-In . SVG Version: 6.00 Build 0)  -->
<svg version="1.1" id="Calque_1" xmlns="http://www.w3.org/2000/svg" xmlns:xlink="http://www.w3.org/1999/xlink" x="0px" y="0px"
	 viewBox="0 0 595.28 641.71" style="enable-background:new 0 0 595.28 641.71;" xml:space="preserve">
<style type="text/css">
	.st0{fill:#FFFFFF;}
</style>
<path class="st0" d="M407.97,385.62c40.69-34.25,62.04-78.21,62.04-128.58v-5.35c0-41.83-16.23-81.25-45.7-110.98
	C392.52,108.65,344,94.05,312.36,94.05c-3.38,0-6.7,0.07-9.96,0.19c-0.48,0.01-7.8,0.12-18.44,1.44c-0.11,0.01-0.22,0.03-0.32,0.04
	c-2.35,0.29-4.85,0.64-7.48,1.07c-0.81,0.13-1.61,0.27-2.41,0.4c-2.04,0.35-4.15,0.75-6.3,1.19c-0.54,0.11-1.07,0.23-1.6,0.34
	c-12.97,2.78-27.42,7.28-39.83,14.58c-8.95,5.26-16.18,10.81-21.95,16.05c-0.11,0.1-0.21,0.19-0.31,0.28
	c-1.82,0.37-3.54,0.73-5.13,1.08c-0.01,0-0.01,0-0.02,0c-0.05,0.01-0.1,0.02-0.16,0.04c-1.64,0.36-3.15,0.7-4.5,1.02
	c-1.78,0.41-3.53,0.85-5.27,1.3c-0.72,0.18-1.29,0.34-1.7,0.45c-32.88,8.8-57.92,24.06-73.5,44.7c-1.06,1.4-3.95,4.72-6.84,9.7
	c-2.73,4.7-13.07,21.32-7.59,42.29c1.23,4.79,3.14,8.93,4.27,11.28c2.57,5.36,6.58,7.22,10.89,4.56
	c4.31-2.67,11.43-10.16,11.43-10.16c9.63-10.5,11-11.93,11.39-20.65c0.34-7.75,1.23-12.73,2.94-20.48
	c5.57-25.19,18.5-42.07,43.8-49.87c2.56-0.79,5.24-1.19,7.83-1.57l-2.05,2.6l-0.2,0.24c-9.9,13.93-17.04,30.05-20.5,47.68
	c-1.57,7.91-2.35,15.92-2.35,23.99v329.82h100.8V406.13c5.43-0.63,12.93-1.71,21.6-3.59c11-2.38,23.3-6.09,36.51-11.62
	c0.52-0.21,1.05-0.44,1.58-0.66c0.2-0.09,0.4-0.16,0.6-0.25l0,0c39.77-16.78,104.37-55.9,104.37-132.96v-5.32
	c-0.01-31.54-12.48-61.82-34.66-84.21c-8.07-8.13-18.05-14.97-28.69-20.41l0.05,0c0,0-41.62-26.35-122.11-22.93
	c-5.67,0.23-11.32,0.7-16.75,1.32c7.94-5.84,17.76-11.32,29.48-14.9c2.68-0.76,5.4-1.47,8.16-2.1c0.42-0.09,0.83-0.19,1.25-0.27
	c1.65-0.32,3.2-0.64,4.7-0.95c11.1-2.09,22.96-3.18,36.02-3.33c0,0,1.96,0,2.96,0c14.82,0,33.61,3.43,52.42,10.6
	c18.8,7.19,37.62,18.12,52.52,33.14c27.62,27.86,42.84,64.81,42.84,104.03v5.35c0,11.11-1.12,21.9-3.32,32.32
	c-0.2,0.95-0.4,1.92-0.63,2.89c-0.19,0.81-0.38,1.61-0.58,2.42c-0.07,0.3-0.13,0.58-0.22,0.86c-4.85,18.96-13.39,36.65-25.48,52.8
	c-0.91,1.24-1.86,2.46-2.84,3.68c-0.89,1.12-1.8,2.23-2.72,3.33c-6.45,7.74-13.78,15.1-21.93,22.05c-0.27,0.23-0.54,0.46-0.81,0.67
	c-6.68,5.63-13.93,11-21.71,16.07c-37.37,24.34-74.69,33.41-76.25,33.79l-6.53,1.56v10.12l0.04-0.01v0.04
	c0.27-0.07,0.56-0.15,0.85-0.23l0.05-0.01l7.88-1.88c0.55-0.12,5.5-1.32,13.28-3.86l65.82,113.99h116.48L407.97,385.62z
	 M267.3,141.99c110.13,15.4,94.99,154.92,77,196.45c-7.6,17.56-13.69,30.76-25.46,40.29c-6.11,4.77-22.19,14.82-51.54,17.25V141.99z
	"/>
<g>
	<path class="st0" d="M288.9,402.54c20.47-4.21,38.49-12.44,38.69-12.53l0,0c39.77-16.78,104.36-55.9,104.36-132.96v-5.32
		c-0.01-31.54-12.48-61.82-34.66-84.21c-8.07-8.13-18.05-14.97-28.69-20.41l0.05,0c0,0-41.62-26.35-122.1-22.93
		c-5.67,0.23-11.32,0.7-16.75,1.32c8.77-6.27,21.49-13.75,38.89-17.27c16.52-3.34,27.66-4.14,40.71-4.29c0,0,1.96,0,2.96,0
		c14.82,0,33.61,3.43,52.42,10.6c18.8,7.19,37.62,18.12,52.52,33.14c27.62,27.86,42.84,64.81,42.84,104.03v5.35
		c0.65,42.95-18.14,75.15-30.23,91.29c-0.91,1.24-16.96,24.12-50,45.81c-40.77,26.76-82.78,35.35-82.78,35.35l0,10.17
		c0.8-0.24,8.82-2.14,8.82-2.14c0.55-0.12,5.5-1.32,13.28-3.86l65.81,113.99h116.48l-93.55-162.03
		c40.69-34.25,62.04-78.21,62.04-128.58v-5.35c0-41.83-16.23-81.25-45.7-110.98C392.52,108.67,344,94.07,312.36,94.07
		c-3.38,0-50.33-1.17-86.35,19.25c-9.03,5.12-16.18,10.81-21.95,16.05c-0.11,0.1-0.21,0.19-0.31,0.28
		c-1.82,0.37-3.54,0.73-5.13,1.08c-0.01,0-0.01,0-0.02,0c-0.05,0.01-0.1,0.02-0.16,0.04c-1.64,0.36-3.15,0.7-4.5,1.02
		c-1.78,0.41-3.53,0.85-5.27,1.29c-0.72,0.18-1.29,0.34-1.7,0.45c-32.88,8.8-57.92,24.06-73.49,44.69c-1.06,1.4-3.95,4.72-6.84,9.7
		c-2.73,4.7-13.07,21.32-7.59,42.29c1.23,4.79,3.14,8.93,4.27,11.28c2.57,5.36,6.58,7.22,10.89,4.56
		c4.31-2.67,11.43-10.16,11.43-10.16c9.63-10.5,11-11.93,11.39-20.64c0.34-7.75,1.23-12.73,2.94-20.48
		c5.57-25.19,18.5-42.07,43.8-49.87c2.56-0.79,5.24-1.19,7.83-1.57l-2.05,2.6l-0.2,0.24c-9.9,13.93-17.04,30.05-20.5,47.68
		c-1.57,7.91-2.35,15.92-2.35,23.99v329.81h100.8V406.13C272.73,405.5,279.67,404.44,288.9,402.54z M344.31,338.45
		c-7.6,17.56-13.69,30.76-25.46,40.29c-6.11,4.77-22.19,14.82-51.54,17.25V142C377.44,157.39,362.3,296.91,344.31,338.45z"/>
</g>
</svg>
